<svg width="24" height="24" viewBox="0 0 24 24" fill="none" xmlns="http://www.w3.org/2000/svg">
<path d="M8.96126 20C16.1358 20 20.0587 13.8429 20.0587 8.50681C20.0587 8.33089 20.0587 8.15497 20.0507 7.98743C20.811 7.4178 21.4742 6.70576 22 5.89319C21.3044 6.21152 20.5521 6.42932 19.7595 6.52984C20.5683 6.02723 21.1831 5.23979 21.4742 4.29319C20.722 4.75393 19.8889 5.08901 18.9991 5.2733C18.2874 4.48586 17.2763 4 16.152 4C14.0004 4 12.2533 5.80942 12.2533 8.0377C12.2533 8.35602 12.2857 8.66597 12.3584 8.95916C9.11494 8.79162 6.24351 7.18325 4.31843 4.73717C3.9868 5.33194 3.79268 6.02723 3.79268 6.7644C3.79268 8.16335 4.4802 9.40314 5.53172 10.1236C4.89272 10.1068 4.29417 9.92251 3.76841 9.62094C3.76841 9.6377 3.76841 9.65445 3.76841 9.6712C3.76841 11.6314 5.11111 13.2565 6.89868 13.6335C6.57514 13.7257 6.22733 13.7759 5.87143 13.7759C5.62069 13.7759 5.37803 13.7508 5.13538 13.7005C5.62878 15.3089 7.06854 16.4733 8.77522 16.5068C7.44061 17.5874 5.7582 18.2325 3.93018 18.2325C3.61473 18.2325 3.30736 18.2157 3 18.1738C4.70668 19.3298 6.76117 20 8.96126 20Z" fill="black"/>
</svg>
