<svg width="24" height="24" viewBox="0 0 24 24" fill="none" xmlns="http://www.w3.org/2000/svg">
<path d="M4 5.9501C4.00174 7.01917 4.8592 7.86886 5.93407 7.86886C7.0072 7.86886 7.86466 7.01221 7.86639 5.94314C7.86639 4.86536 7.00546 4 5.92885 4C4.8505 4 3.99826 4.86187 4 5.9501ZM12.8632 10.7505C13.3832 9.93216 14.0494 9.39414 14.926 9.16605C15.9921 8.88746 17.0479 8.97626 18.0532 9.42722C19.0654 9.88166 19.5402 10.7592 19.782 11.7882C19.9594 12.5422 19.9994 13.31 19.9977 14.0831C19.9924 15.967 19.9924 17.851 19.9994 19.7349C19.9994 19.9334 19.9437 19.9995 19.742 19.9978C18.7976 19.9891 17.8531 19.9891 16.9087 19.9978C16.6931 19.9995 16.6391 19.9212 16.6391 19.7175C16.6461 17.9659 16.6513 16.2143 16.6357 14.4627C16.6322 14.0152 16.5922 13.559 16.493 13.1237C16.3208 12.3767 15.8182 12.0059 15.0494 11.9954C14.8025 11.992 14.5468 12.0041 14.3085 12.0633C13.538 12.2549 13.2093 12.8399 13.0823 13.559C13.0215 13.9055 12.9988 14.2624 12.9971 14.6141C12.9884 16.317 12.9901 18.0198 12.9988 19.7227C13.0006 19.9351 12.9414 19.9978 12.731 19.9961C11.7866 19.9874 10.8422 19.9856 9.89773 19.9961C9.6838 19.9978 9.62988 19.9264 9.62988 19.7192C9.6351 16.3344 9.6351 12.9496 9.62988 9.56477C9.62988 9.35932 9.67858 9.28967 9.89599 9.29141C10.8056 9.3036 11.7153 9.30186 12.6249 9.29141C12.8232 9.28967 12.8754 9.35757 12.8684 9.54214C12.8596 9.82009 12.8608 10.0971 12.8622 10.3979C12.8627 10.5116 12.8632 10.6287 12.8632 10.7505ZM7.61353 14.6281V19.714C7.61353 19.9909 7.61179 19.9926 7.33525 19.9926C7.09916 19.9926 6.86307 19.9924 6.62698 19.9922C5.91865 19.9915 5.21031 19.9909 4.50198 19.9961C4.3211 19.9978 4.24805 19.9543 4.24805 19.7523C4.255 16.3483 4.25326 12.9426 4.24805 9.53867C4.24805 9.34366 4.30718 9.29316 4.49502 9.2949C5.45336 9.30361 6.4117 9.30361 7.37003 9.2949C7.56483 9.29316 7.61701 9.35584 7.61701 9.54389C7.61179 10.8144 7.61244 12.0849 7.6131 13.3562C7.61331 13.78 7.61353 14.204 7.61353 14.6281Z" fill="black"/>
</svg>
