<svg width="24" height="24" viewBox="0 0 24 24" fill="none" xmlns="http://www.w3.org/2000/svg">
<path d="M8.5045 1.0005C8.01994 0.98689 7.68032 1.25063 7.3271 1.99475C7.1225 2.49501 7.07331 3.04499 7.07331 3.64624C7.22506 4.29617 7.37577 4.94609 7.57828 5.59602C7.87237 6.49555 8.51235 8.36421 9.0011 9.79698C9.02727 9.80901 9.05395 9.81948 9.09529 9.83779C9.28891 9.95815 9.36688 10.0236 9.4527 10.0994C9.55265 10.1874 9.66515 10.3014 9.77975 10.4265C9.8818 10.1994 10.0372 9.98484 10.2601 9.79698C10.8651 9.39614 11.5746 9.64732 12.2329 9.64732L12.9394 9.71535C12.3821 8.02251 11.3863 4.89062 10.7447 3.62165C10.391 2.92044 10.0372 2.27052 9.583 1.67135C9.38101 1.37099 9.12774 1.1219 8.72271 1.02143C8.65047 1.00866 8.57785 1.00166 8.5045 1.0005ZM17.9865 1.59391C17.6741 1.62007 17.3308 1.80427 16.9765 2.12923C16.8771 2.2297 16.7233 2.32965 16.6725 2.47879C16.1163 3.12871 15.7118 3.93039 15.358 4.68026C14.751 5.8315 13.8656 8.31869 13.4611 9.56987C13.4428 9.63738 13.4161 9.69651 13.3936 9.76192C13.7332 9.79488 14.0702 9.82942 14.2544 9.84774C14.8185 9.90896 16.2534 10.0911 17.2466 10.2339C17.6558 9.06699 18.3345 7.14966 18.6573 6.19728C18.9085 5.34693 19.1623 4.49659 19.2644 3.64624C19.3135 3.04499 19.211 2.49501 18.8065 1.99422C18.5794 1.69595 18.2994 1.56722 17.9865 1.59391ZM7.99168 10.3119C7.93341 10.3097 7.87509 10.3145 7.81795 10.326C7.28053 10.4265 6.82631 10.7473 6.46681 11.1476C6.44222 11.1743 6.42391 11.2031 6.4014 11.2297C6.27267 11.4359 6.19732 11.6484 6.20936 11.8368V11.8859C6.20936 12.2721 6.36268 12.4354 6.46263 12.6871C6.81637 13.3841 7.52543 14.2857 8.30042 15.1398C8.33705 15.179 8.37368 15.2177 8.40874 15.2564C8.62329 15.4893 8.84202 15.7222 9.05866 15.9514C9.42863 16.3156 9.85197 16.9205 10.4485 16.661C10.8227 16.4951 11.1926 16.0764 11.3255 15.6897C11.3543 15.6144 11.3685 15.5385 11.3685 15.4631C11.3685 14.6269 9.55108 11.7818 8.8933 10.9315C8.65573 10.6248 8.38205 10.3218 7.99168 10.3119ZM12.1822 10.449C11.8284 10.449 11.5239 10.449 11.1701 10.5469C10.9169 10.6473 10.7143 10.798 10.7143 11.0963C10.6939 11.3443 10.7285 11.5688 10.796 11.7797C10.8985 11.9451 10.9985 12.1209 11.0969 12.303C11.1785 12.3888 11.2643 12.4746 11.3726 12.55C11.7264 12.7996 12.1822 12.9487 12.6359 13.0487C13.6495 13.2491 14.7107 13.2491 15.7735 13.2491C16.0247 13.2491 16.2293 13.2491 16.4826 13.3004C16.7337 13.3496 16.7855 13.5495 16.8363 13.7991C16.8855 13.9995 16.7343 14.0995 16.583 14.1507C16.2806 14.2999 16.0247 14.3998 15.7222 14.4982C14.5082 14.9498 13.5987 15.7489 12.9404 16.8509C12.4846 17.65 12.3334 18.5003 12.6892 19.4019C12.7887 19.6003 12.8405 19.8007 12.8891 20.0498C12.9404 20.2523 12.9917 20.5019 12.9404 20.751C12.4354 20.651 12.1309 20.4014 11.8797 20.0011C11.6772 19.6003 11.5752 19.1508 11.5239 18.7007C11.4747 18.4516 11.4726 18.1999 11.4726 17.9509C11.5077 17.64 11.5547 17.3847 11.6118 17.1638C11.4668 17.3151 11.301 17.46 11.0948 17.5809C10.8368 17.7504 10.4485 17.7688 10.1194 17.74C10.1461 17.7975 10.1727 17.8546 10.1952 17.9095C10.1952 18.01 10.2465 18.0592 10.2465 18.1099C10.3978 18.7112 10.144 19.2612 9.63951 19.6102C9.23449 19.9111 8.72951 19.9085 8.27373 19.8106C7.4642 19.6102 6.72637 19.0728 6.22139 18.4229C5.96812 18.0733 5.71433 17.6725 5.66566 17.2742C5.51234 16.8734 5.51234 16.673 5.76561 16.4239C5.8148 16.5218 5.91736 16.573 5.96812 16.6709C6.2193 16.9713 6.42181 17.2742 6.67508 17.5725C6.97754 17.9242 7.41292 18.3104 7.81795 18.4595C8.17169 18.6086 8.47624 18.6086 8.82946 18.4595C9.13245 18.3104 9.18321 18.1099 9.13402 17.8096C9.08326 17.7096 9.03198 17.6092 8.98122 17.5113C8.62747 16.8101 8.17169 16.1602 7.61543 15.6081C7.31297 15.3098 5.96184 13.7766 5.11778 14.1853C4.53117 14.5594 4.14865 15.1361 4.03823 15.9006C3.93828 16.751 4.03823 17.5008 4.29203 18.3004C4.79857 19.9006 6.5181 21.6505 8.2371 22.3517C9.52885 22.8984 10.9392 23.1045 12.3334 22.9504C13.347 22.9017 14.357 22.6029 15.2664 22.1513C17.0875 21.2518 18.302 19.8007 19.0603 17.9509C19.4161 17.0508 19.6186 16.0498 19.6673 15.0503C19.6757 14.9378 19.6798 14.8253 19.684 14.7148C19.684 14.3983 19.684 13.8567 19.6553 13.3679C19.6343 13.1795 19.604 12.9875 19.5673 12.7975C19.5307 12.6379 19.4857 12.4783 19.4344 12.3213C19.279 12.0189 19.0545 11.7593 18.729 11.5992C18.4758 11.4998 18.2753 11.3993 18.0221 11.2993C16.4543 10.7473 13.8007 10.5981 12.1822 10.449ZM11.8897 13.899C12.0817 14.2036 12.2758 14.5123 12.3355 14.9252C12.3658 15.1361 12.3679 15.4956 12.28 15.8964L12.4354 15.6976C12.8384 15.0989 13.3962 14.6981 14.0011 14.2486C13.2554 14.2015 12.5516 14.1073 11.8897 13.899Z" fill="black"/>
</svg>
